<svg viewBox="0 0 100 100" xmlns="http://www.w3.org/2000/svg" xmlns:xlink="http://www.w3.org/1999/xlink" width="100" height="100">
<defs>
<linearGradient id="bg-gradient" x1="0%" y1="0%" x2="50%" y2="100%"><stop stop-color="#ffe74b" offset="0.0027548209366391"/><stop stop-color="#ead544" offset="1"/></linearGradient>

 <g id="bg" fill="url(#bg-gradient)" class="bg"><path d="M100,77.646C100,89.941,89.941,100,77.646,100H22.353C10.059,100,0,89.941,0,77.646V22.353 C0,10.059,10.059,0,22.353,0h55.295C89.941,0,100,10.059,100,22.353V77.646z"/></g> 
 <path fill="#329ef2" id="i-507" d="M6.01,19.709c0.039,0.301,0.119,0.73,0.211,1.211C6.529,22.51,7,24.91,7,28.5c0,1.67-0.141,10-3,10s-3-8.33-3-10 c0-3.59,0.471-5.99,0.779-7.58c0.08-0.41,0.15-0.779,0.191-1.061C0.92,19.49,0,18.609,0,15.5v-6h2v6c0,2.289,0.471,2.43,0.76,2.51 C2.82,18.029,2.9,18.049,3,18.09V9.5h2v8.49c0.039-0.02,0.08-0.041,0.109-0.061C5.529,17.721,6,17.49,6,15.5v-6h2v6 C8,18.33,7.049,19.199,6.01,19.709z M24.007,16c-4.41,0-8,3.59-8,8s3.59,8,8,8s8-3.59,8-8S28.417,16,24.007,16z M48,17 c0-5.9-2.691-8-5-8h-1v16h0.01c-0.09,1.59-0.57,12.699,0.199,13.629L42.529,39H43c4,0,4-1.91,4-9c0-0.85,0.029-1.551,0.059-2.16 c0.051-1.109,0.092-1.98-0.068-3c-0.07-0.381-0.031-0.49,0.139-0.93C47.449,23.029,48,21.561,48,17z M40,24c0,8.82-7.18,16-16,16 S8,32.82,8,24S15.18,8,24,8S40,15.18,40,24z M34,24c0-5.51-4.49-10-10-10s-10,4.49-10,10s4.49,10,10,10S34,29.51,34,24z"/> 
</defs>
<use x="0" y="0" class="bg" xlink:href="#bg"/>
<use x="26" y="26" xlink:href="#i-507"/>
<use x="0" y="0" xlink:href="#fg"/>
</svg>