<svg viewBox="0 0 100 100" xmlns="http://www.w3.org/2000/svg" xmlns:xlink="http://www.w3.org/1999/xlink" width="100" height="100">
<defs>
<linearGradient id="bg-gradient" x1="0%" y1="0%" x2="50%" y2="100%"><stop stop-color="#ffe74b" offset="0.0027548209366391"/><stop stop-color="#ead544" offset="1"/></linearGradient>

 <g id="bg" fill="url(#bg-gradient)" class="bg"><path d="M100,77.646C100,89.941,89.941,100,77.646,100H22.353C10.059,100,0,89.941,0,77.646V22.353 C0,10.059,10.059,0,22.353,0h55.295C89.941,0,100,10.059,100,22.353V77.646z"/></g> 
 <path fill="#329ef2" id="i-2643" d="M24,7.48l-6.194-7.076C19.593,0.168,21.665,0,24,0s4.406,0.168,6.194,0.404L24,7.48z M29.474,4.264l-3.791,4.332 l2.597,1.039L29.474,4.264z M22.317,8.596l-3.791-4.332l1.194,5.371L22.317,8.596z M47.29,8.66l-4.81,9.609L38,16.479v29.14 l-0.551,0.271C37.28,45.979,33.13,48,24,48s-13.28-2.021-13.45-2.11L10,45.619v-29.14l-4.479,1.79L0.71,8.66l9.92-6.591 c0.123-0.047,1.942-0.756,5.063-1.331l2.586,11.627L23,10.477L22.999,15h2L25,10.477l4.721,1.889l2.586-11.627 c3.121,0.575,4.939,1.284,5.063,1.331l0.18,0.101L47.29,8.66z M34,14h-4v2h4V14z"/> 
</defs>
<use x="0" y="0" class="bg" xlink:href="#bg"/>
<use x="26" y="26" xlink:href="#i-2643"/>
<use x="0" y="0" xlink:href="#fg"/>
</svg>