<svg viewBox="0 0 100 100" xmlns="http://www.w3.org/2000/svg" xmlns:xlink="http://www.w3.org/1999/xlink" width="100" height="100">
<defs>
<linearGradient id="bg-gradient" x1="0%" y1="0%" x2="50%" y2="100%"><stop stop-color="#ffe74b" offset="0.0027548209366391"/><stop stop-color="#ead544" offset="1"/></linearGradient>

 <g id="bg" fill="url(#bg-gradient)" class="bg"><path d="M100,77.646C100,89.941,89.941,100,77.646,100H22.353C10.059,100,0,89.941,0,77.646V22.353 C0,10.059,10.059,0,22.353,0h55.295C89.941,0,100,10.059,100,22.353V77.646z"/></g> 
 <path fill="#329ef2" id="i-2051" d="M13.475,10.468l-1.33-9.079l12.3,7.569L13.475,10.468z M32.225,37.229c-1.33,1.58-2.83,3.361-4.67,5.031 c-2.02,1.82-3.81,2.74-5.33,2.74c-3.07,0-4.48-6.57-4.97-8.951l7.73-25.139l-11.21,1.539l3.44,23.411l-1.98,0.289l-3.45-23.43 l-10.07,1.391l13.56,22.26C15.885,39.35,17.495,47,22.225,47c2.061,0,4.24-1.07,6.669-3.262c1.939-1.75,3.49-3.59,4.859-5.219 c3.971-4.701,5.961-7.07,11.871-2.711l1.189-1.609C39.395,28.729,36.074,32.67,32.225,37.229z M10.165,1.719l-8.47,10.38l9.8-1.35 L10.165,1.719z"/> 
</defs>
<use x="0" y="0" class="bg" xlink:href="#bg"/>
<use x="26" y="26" xlink:href="#i-2051"/>
<use x="0" y="0" xlink:href="#fg"/>
</svg>